<svg xmlns="http://www.w3.org/2000/svg" width="430" height="430" style="width:100%;height:100%;transform:translate3d(0,0,0);content-visibility:visible" viewBox="0 0 430 430"><defs><clipPath id="e"><path d="M0 0h430v430H0z"/></clipPath><clipPath id="l"><path d="M0 0h430v430H0z"/></clipPath><clipPath id="k"><path d="M0 0h430v430H0z"/></clipPath><clipPath id="i"><path d="M0 0h430v430H0z"/></clipPath><clipPath id="h"><path d="M0 0h430v430H0z"/></clipPath><clipPath id="f"><path d="M0 0h430v430H0z"/></clipPath><filter id="a" width="100%" height="100%" x="0%" y="0%" filterUnits="objectBoundingBox"><feComponentTransfer in="SourceGraphic"><feFuncA tableValues="1.0 0.0" type="table"/></feComponentTransfer></filter><filter id="c" width="100%" height="100%" x="0%" y="0%" filterUnits="objectBoundingBox"><feComponentTransfer in="SourceGraphic"><feFuncA tableValues="1.0 0.0" type="table"/></feComponentTransfer></filter><path id="b" style="display:none"/><path id="d" style="display:none"/><mask id="j" mask-type="alpha"><g filter="url(#a)"><path fill="#fff" d="M0 0h430v430H0z" opacity="0"/><use xmlns:ns1="http://www.w3.org/1999/xlink" ns1:href="#b"/></g></mask><mask id="g" mask-type="alpha"><g filter="url(#c)"><path fill="#fff" d="M0 0h430v430H0z" opacity="0"/><use xmlns:ns2="http://www.w3.org/1999/xlink" ns2:href="#d"/></g></mask></defs><g clip-path="url(#e)"><g clip-path="url(#f)" style="display:none"><path class="quaternary" style="display:none"/><g style="display:none"><path class="tertiary"/><path class="tertiary" style="mix-blend-mode:multiply"/><path class="secondary"/><path class="secondary" style="mix-blend-mode:multiply"/></g><g style="display:none"><path class="secondary"/><path class="secondary" style="mix-blend-mode:multiply"/><path class="quaternary"/></g><g mask="url(#g)" style="display:none"><path fill="none" class="primary"/></g><g fill="none" style="display:none"><path class="primary"/><path class="primary"/><path class="primary"/><path class="primary"/></g><g fill="none" style="display:none"><path class="primary"/><path class="primary"/><path class="primary"/></g></g><g clip-path="url(#h)" style="display:none"><path class="quaternary" style="display:none"/><g style="display:none"><path class="tertiary"/><path class="tertiary" style="mix-blend-mode:multiply"/><path class="secondary"/><path class="secondary" style="mix-blend-mode:multiply"/></g><g style="display:none"><path class="secondary"/><path class="secondary" style="mix-blend-mode:multiply"/><path class="quaternary"/></g><path fill="none" class="primary" style="display:none"/><g fill="none" style="display:none"><path class="primary"/><path class="primary"/><path class="primary"/><path class="primary"/></g><g fill="none" style="display:none"><path class="primary"/><path class="primary"/><path class="primary"/></g></g><g clip-path="url(#i)" style="display:none"><path class="quaternary" style="display:none"/><g style="display:none"><path class="tertiary"/><path class="tertiary" style="mix-blend-mode:multiply"/><path class="secondary"/><path class="secondary" style="mix-blend-mode:multiply"/></g><g style="display:none"><path class="secondary"/><path class="secondary" style="mix-blend-mode:multiply"/><path class="quaternary"/></g><g mask="url(#j)" style="display:none"><path fill="none" class="primary"/></g><g fill="none" style="display:none"><path class="primary"/><path class="primary"/><path class="primary"/><path class="primary"/></g><g fill="none" style="display:none"><path class="primary"/><path class="primary"/><path class="primary"/></g></g><g clip-path="url(#k)" style="display:block"><path fill="#B16836" d="M88.25 102.369C90.423 53.761 102.996-100.46.491-100.46h-.982c-102.505 0-92 156.943-87.546 204.551" class="quaternary" style="display:block" transform="translate(213.972 153.148)"/><g style="display:block"><path fill="#4AB3FC" d="m181.17 245.72-13.266-1.222c-43.48 0-74.719 34.092-74.719 77.572v31.512c0 8.459 6.862 15.32 15.321 15.32h19.43c38.487 2.989 37.994 16.815 70.166 16.815h33.796c32.172 0 31.679-13.826 70.166-16.815h19.431c8.459 0 15.32-6.861 15.32-15.32V322.07c0-43.48-35.239-78.719-78.719-78.719l-9.163 2.369-.01-.063" class="tertiary"/><path fill="#4AB3FC" d="m-33.83-58.86-13.266-1.222c-43.48 0-74.719 34.092-74.719 77.572v31.512c0 8.459 6.862 15.32 15.321 15.32h19.43C-87.5 29.134-95-27.288-53.186-43.705" class="tertiary" opacity=".5" style="mix-blend-mode:multiply" transform="translate(215 304.58)"/><path fill="#F8C8C0" d="M181.095 202.5 181 243.886h-15.125c-3.5 0-7.375.625-9.015 1.169 1.29 23.43 25.99 41.859 56.26 41.859 30.55 0 55.41-18.769 56.29-42.489 0 0-4.035-1.476-7.035-1.414-5.124.107-13.375.115-13.375.115v-40.511z" class="secondary"/><path fill="#F8C8C0" d="m-32.04-63.039-.095 41.386H-47.26c-3.5 0-7.375.625-9.015 1.169.315 5.714 2.022 11.13 4.862 16.054 22.778-10.881 72.278-3.312 87.188-32.739l.09.069v-25.824z" class="secondary" opacity=".5" style="mix-blend-mode:multiply" transform="translate(213.135 265.539)"/></g><g style="display:block"><path fill="#F8C8C0" d="m239.44 68.016 36.84 33.107.267 68.253c0 34.139-27.681 61.821-61.82 61.821h-1.51c-34.139 0-61.82-27.682-61.82-61.821l.122-42.324" class="secondary"/><path fill="#F8C8C0" d="m-50.425-72.87 8.231 9.907V-5.96c.221 29.383 39.471 50.383 76.443 43.976-9.652 6.235-21.151 9.853-33.494 9.853h-1.51c-34.139 0-61.82-27.681-61.82-61.82l.093-41.323" class="secondary" opacity=".5" style="mix-blend-mode:multiply" transform="translate(213.972 183.327)"/><path fill="#B16836" d="M147.785 89.076c-3.983 14.548-.33 50.839-.33 50.839 1.331-.273 2.652-.567 3.941-.86 74.692-16.907 86.788-61.81 86.788-61.81 22.267 12.19 38.362 40.802 38.362 58.215.073 2.012 0 3.166 0 3.166 3.87-6.273 4.425-22.931 3.628-49.02 0 0-25.008-33.77-67.006-32.703" class="quaternary"/></g><path fill="none" stroke="#121330" stroke-linecap="round" stroke-linejoin="round" stroke-width="7" d="M88.25 102.369C90.423 53.761 102.996-100.46.491-100.46q0 0 0 0h-.982q0 0 0 0c-102.505 0-92 156.943-87.546 204.551" class="primary" style="display:block" transform="translate(213.972 153.148)"/><g fill="none" stroke="#121330" stroke-linecap="round" stroke-linejoin="round" stroke-width="7" style="display:block"><path d="M276.547 135.457v33.919c0 34.139-27.681 61.821-61.82 61.821h-1.51c-34.139 0-61.82-27.682-61.82-61.821v-30.323" class="primary"/><path d="M147.785 89.076c-3.983 14.548-.33 50.839-.33 50.839 1.331-.273 2.652-.567 3.941-.86 74.692-16.907 86.788-61.81 86.788-61.81 22.267 12.19 38.362 40.802 38.362 58.215.073 2.012 0 3.166 0 3.166 3.87-6.273 4.425-22.931 3.628-49.02m-3.627 49.017" class="primary"/></g><g fill="none" stroke="#121330" stroke-linecap="round" stroke-linejoin="round" style="display:block"><path stroke-width="7" d="m181.16 223.443.01 19.41-9.266.498c-43.48 0-78.719 35.239-78.719 78.719v31.512c0 8.459 6.862 15.32 15.321 15.32h19.43c38.487 2.989 37.994 16.815 70.166 16.815h33.796c32.172 0 31.679-13.826 70.166-16.815h19.43c8.459 0 15.321-6.861 15.321-15.32V322.07c0-43.48-35.239-78.719-78.719-78.719l-9.163-.498-.01-.063.01-18.942" class="primary"/><path stroke-width="7" d="M158.36 244.794c1.29 23.43 25.99 42.12 56.26 42.12 30.55 0 55.41-19.03 56.29-42.75" class="primary"/><path stroke-width="12" d="M214.304 313.605q0 0 0 0m0 25.281q0 0 0 0m0 25.282q0 0 0 0" class="primary"/></g></g><g clip-path="url(#l)" style="display:none"><path class="quaternary" style="display:none"/><g style="display:none"><path class="tertiary"/><path class="tertiary" style="mix-blend-mode:multiply"/><path class="secondary"/><path class="secondary" style="mix-blend-mode:multiply"/></g><g style="display:none"><path class="secondary"/><path class="secondary" style="mix-blend-mode:multiply"/></g><g style="display:none"><path class="secondary"/><path class="secondary" style="mix-blend-mode:multiply"/></g><path class="quaternary" style="display:none"/><path fill="none" class="primary" style="display:none"/><g fill="none" style="display:none"><path class="primary"/><path class="primary"/><path class="primary"/><path class="primary"/></g><g fill="none" style="display:none"><path class="primary"/><path class="primary"/><path class="primary"/></g></g></g></svg>